<svg width="13" height="15" viewBox="0 0 13 15" fill="none" xmlns="http://www.w3.org/2000/svg">
<path fill-rule="evenodd" clip-rule="evenodd" d="M10.0734 4.66527C10.0733 4.5492 10.0033 4.44457 9.89609 4.4001C9.78874 4.35574 9.66536 4.38028 9.58327 4.46238C9.50118 4.54448 9.47663 4.66787 9.52098 4.7752C9.56546 4.88243 9.67009 4.95238 9.78616 4.9525C9.94434 4.95155 10.0724 4.82345 10.0734 4.66526L10.0734 4.66527ZM10.0734 5.70852C10.0734 5.54998 9.94481 5.4214 9.78627 5.4214C9.62773 5.4214 9.49915 5.54998 9.49915 5.70852V7.41681C9.49915 7.57534 9.62773 7.7038 9.78627 7.7038C9.94481 7.7038 10.0734 7.57534 10.0734 7.41681V5.70852ZM6.06734 13.5171C6.06734 13.4409 6.03714 13.3678 5.98323 13.3141C5.92933 13.2601 5.85631 13.2299 5.78011 13.2299H4.63105C4.4751 13.2336 4.35042 13.3611 4.35042 13.5172C4.35042 13.6732 4.4751 13.8008 4.63105 13.8043H5.78011C5.85631 13.8044 5.92944 13.7741 5.98335 13.7203C6.03726 13.6664 6.06746 13.5933 6.06734 13.5171L6.06734 13.5171ZM9.78559 8.98739C9.71104 8.98739 9.63638 8.98456 9.56206 8.97878V8.9789C9.49282 8.97347 9.42417 8.99341 9.36861 9.03505L8.2862 9.8439V8.71797C8.28608 8.6236 8.23972 8.53525 8.16222 8.48158C7.40586 7.95961 6.94664 7.1058 6.92801 6.18703C6.90949 5.26823 7.33381 4.39663 8.06846 3.84447C8.80311 3.29242 9.75848 3.12727 10.6358 3.40059C11.5132 3.67402 12.2056 4.35252 12.4966 5.22427C12.7876 6.09586 12.6418 7.05431 12.1046 7.79993C11.5675 8.54554 10.7045 8.98742 9.78563 8.98742L9.78559 8.98739ZM9.03017 14.5H1.38107C1.25674 14.4999 1.13748 14.4503 1.04958 14.3625C0.961691 14.2746 0.912278 14.1553 0.912278 14.031V12.5341H9.49932V14.031C9.49921 14.1553 9.44978 14.2746 9.3619 14.3625C9.2739 14.4503 9.15476 14.4999 9.03042 14.5H9.03017ZM1.38107 0.5H2.3868L2.76911 1.67723C2.80756 1.79555 2.91786 1.87576 3.04242 1.87564H7.36886C7.49331 1.87564 7.6036 1.79555 7.64194 1.67723L8.02473 0.5H9.03022C9.15455 0.500236 9.27369 0.54966 9.36158 0.637542C9.44958 0.725423 9.49901 0.844681 9.49912 0.968902V2.70576L9.35356 2.72416V2.72404C8.45542 2.83799 7.63866 3.30218 7.08118 4.0156C6.5237 4.7289 6.27067 5.63366 6.37709 6.53274C6.4836 7.43173 6.94094 8.25235 7.64965 8.81575L7.71229 8.86577V10.4164V10.4162C7.71229 10.525 7.77375 10.6243 7.87083 10.673C7.96803 10.7218 8.08433 10.7114 8.17139 10.6463L9.49915 9.65457V11.9601H0.912109V0.969022C0.912227 0.844809 0.961652 0.725552 1.04953 0.637661C1.13742 0.549779 1.25655 0.500354 1.38089 0.500119L1.38107 0.5ZM7.42062 0.5H2.99031L3.25064 1.3013H7.16035L7.42062 0.5Z" fill="#18A0FB"/>
</svg>
