<svg width="40" height="40" viewBox="0 0 40 40" fill="none" xmlns="http://www.w3.org/2000/svg">
<circle opacity="0.1" cx="20" cy="20" r="20" fill="#092C4C"/>
<path d="M22.4902 17.4942C22.4902 18.1567 22.7535 18.7923 23.2219 19.2607C23.6903 19.7291 24.3259 19.9924 24.9884 19.9924C25.6509 19.9924 26.2864 19.7291 26.7548 19.2607C27.2233 18.7923 27.4865 18.1567 27.4865 17.4942C27.4865 16.8318 27.2233 16.1964 26.7548 15.7278C26.2864 15.2594 25.6509 14.9961 24.9884 14.9961C24.3259 14.9961 23.6903 15.2594 23.2219 15.7278C22.7535 16.1964 22.4902 16.8318 22.4902 17.4942Z" fill="#092C4C"/>
<path d="M27.0465 20.7716C26.8508 20.6816 26.6311 20.6574 26.4204 20.7023C26.2098 20.7474 26.0193 20.8592 25.8774 21.0214L24.9881 21.9907L24.0988 20.9914C23.9569 20.8294 23.7664 20.7174 23.5557 20.6725C23.3451 20.6274 23.1253 20.6517 22.9297 20.7417C21.4805 21.3987 20.4309 22.7064 20.1032 24.2636C19.7756 25.8205 20.2092 27.4406 21.2709 28.6257C21.4497 28.8411 21.7108 28.9717 21.9903 28.9855H27.986C28.2679 28.9847 28.5366 28.8651 28.7255 28.6558C29.7871 27.4705 30.2207 25.8506 29.8932 24.2934C29.5656 22.7365 28.5158 21.4285 27.0667 20.7716L27.0465 20.7716Z" fill="#092C4C"/>
<path d="M17.9934 26.9866H11.9982V11.9978H23.9891V12.997C23.9891 13.354 24.1796 13.6839 24.4888 13.8624C24.798 14.0408 25.1789 14.0408 25.4881 13.8624C25.7973 13.684 25.9878 13.354 25.9878 12.997V10.9985C25.9878 10.7334 25.8823 10.4792 25.695 10.2919C25.5077 10.1046 25.2535 9.99933 24.9884 9.99933H21.9906C21.9906 9.73426 21.8854 9.48007 21.6981 9.29276C21.5107 9.10523 21.2565 9 20.9915 9H14.9963C14.7312 9 14.477 9.10523 14.2897 9.29276C14.1022 9.48008 13.9969 9.73427 13.9969 9.99933H10.9993C10.7343 9.99933 10.4801 10.1046 10.2928 10.2919C10.1052 10.4792 10 10.7334 10 10.9985V27.9855C10 28.2506 10.1052 28.5048 10.2928 28.6921C10.4801 28.8794 10.7343 28.9848 10.9993 28.9848H17.9942H17.994C18.351 28.9848 18.681 28.7944 18.8594 28.4852C19.0378 28.176 19.0378 27.795 18.8594 27.4859C18.681 27.1767 18.351 26.9864 17.994 26.9864L17.9934 26.9866Z" fill="#092C4C"/>
<path d="M14.9953 13.9961C14.6383 13.9961 14.3084 14.1866 14.1299 14.4956C13.9515 14.8047 13.9515 15.1857 14.1299 15.4949C14.3083 15.804 14.6383 15.9946 14.9953 15.9946H19.9916H19.9914C20.3485 15.9946 20.6784 15.8041 20.8569 15.4949C21.0353 15.1857 21.0353 14.8047 20.8569 14.4956C20.6785 14.1866 20.3485 13.9961 19.9914 13.9961H14.9953Z" fill="#092C4C"/>
<path d="M18.9923 16.9941H14.9953C14.6383 16.9941 14.3084 17.1846 14.1299 17.4938C13.9515 17.803 13.9515 18.184 14.1299 18.4931C14.3083 18.8023 14.6383 18.9926 14.9953 18.9926H18.9923C19.3494 18.9926 19.6791 18.8023 19.8578 18.4931C20.0362 18.184 20.0362 17.803 19.8578 17.4938C19.6791 17.1846 19.3494 16.9941 18.9923 16.9941Z" fill="#092C4C"/>
<path d="M17.993 19.9922H14.9953C14.6383 19.9922 14.3084 20.1827 14.1299 20.4919C13.9515 20.801 13.9515 21.1818 14.1299 21.491C14.3083 21.8001 14.6383 21.9906 14.9953 21.9906H17.9932H17.993C18.35 21.9906 18.6799 21.8002 18.8584 21.491C19.0368 21.1818 19.0368 20.801 18.8584 20.4919C18.68 20.1827 18.35 19.9922 17.993 19.9922H17.993Z" fill="#092C4C"/>
</svg>
