<svg width="13" height="14" viewBox="0 0 13 14" fill="none" xmlns="http://www.w3.org/2000/svg">
<path fill-rule="evenodd" clip-rule="evenodd" d="M9.38762 0.538034C9.38801 0.834348 9.6174 1.07601 9.90787 1.13454C11.5421 1.46387 12.5905 2.71488 12.5924 4.54283L12.6 10.4409C12.6028 12.6378 11.2226 13.9895 9.01026 13.993L3.60632 14C1.40784 14.0028 0.0103716 12.6189 0.00760708 10.4157L4.65482e-06 4.58691C-0.00250316 2.74696 1.00848 1.49773 2.63569 1.14946C2.92627 1.08727 3.15402 0.843583 3.15363 0.546429C3.15294 0.238584 3.38101 0.00699966 3.68511 0.00699966C3.9892 0.00630001 4.21728 0.237184 4.21797 0.54503C4.21835 0.815518 4.43793 1.03449 4.70841 1.03412L7.83421 1.02986C8.10469 1.02949 8.32366 0.809913 8.32328 0.539433C8.32259 0.231587 8.55066 0.000702814 8.85476 1.57867e-06C9.15194 -0.000696485 9.38693 0.230188 9.38762 0.538034ZM1.06446 4.58531C1.06484 4.70554 1.1625 4.80277 1.28274 4.80261L11.284 4.78923C11.4193 4.78905 11.5288 4.67932 11.5288 4.54403C11.5033 3.24945 10.9407 2.48448 9.92095 2.22145C9.64056 2.14913 9.39012 2.3822 9.39049 2.67176C9.39049 2.97261 9.1562 3.21119 8.85902 3.21119C8.55492 3.21189 8.32616 2.97401 8.32616 2.67316C8.32577 2.36019 8.07172 2.10679 7.75875 2.10722L4.78617 2.11127C4.47356 2.1117 4.22046 2.36545 4.22085 2.67806C4.22085 2.97961 3.99346 3.21749 3.68937 3.21749C3.38527 3.21819 3.15651 2.98101 3.15651 2.67946C3.15614 2.39091 2.9043 2.16039 2.62589 2.23618C1.61408 2.51159 1.06267 3.28009 1.06446 4.58531ZM8.56836 7.98322V7.99091C8.57527 8.31275 8.8379 8.55693 9.15651 8.54993C9.46752 8.54224 9.71564 8.27567 9.70872 7.95383C9.69421 7.64599 9.44471 7.39481 9.1344 7.39551C8.81648 7.40251 8.56767 7.66138 8.56836 7.98322ZM9.13863 11.1237C8.82071 11.1167 8.56431 10.8515 8.56361 10.5297C8.5567 10.2079 8.81173 9.94129 9.12965 9.9336H9.13656C9.46139 9.9336 9.72471 10.1988 9.72471 10.5276C9.7254 10.8564 9.46277 11.123 9.13863 11.1237ZM5.7207 7.994C5.73453 8.31584 5.99785 8.56702 6.31577 8.55302C6.62678 8.53833 6.87489 8.27246 6.86107 7.95062C6.85347 7.63578 6.59775 7.3909 6.28674 7.3916C5.96882 7.4056 5.72001 7.67216 5.7207 7.994ZM6.31772 11.0931C5.9998 11.1071 5.73717 10.8559 5.72266 10.534C5.72266 10.2122 5.97077 9.94634 6.28869 9.93164C6.5997 9.93094 6.85611 10.1758 6.86302 10.49C6.87753 10.8125 6.62873 11.0784 6.31772 11.0931ZM2.87305 8.01842C2.88687 8.34026 3.15019 8.59213 3.46811 8.57744C3.77912 8.56344 4.02724 8.29688 4.01272 7.97504C4.00581 7.6602 3.75009 7.41532 3.43839 7.41602C3.12047 7.43001 2.87236 7.69658 2.87305 8.01842ZM3.47104 11.096C3.15312 11.1107 2.89049 10.8588 2.87598 10.537C2.87529 10.2151 3.12409 9.94857 3.44201 9.93457C3.75302 9.93387 4.00943 10.1788 4.01634 10.4936C4.03086 10.8154 3.78274 11.082 3.47104 11.096Z" fill="#2F80ED"/>
</svg>
