<svg width="25" height="22" viewBox="0 0 25 22" fill="none" xmlns="http://www.w3.org/2000/svg">
<path d="M23.375 17.3V11.4917C23.375 10.2162 23.375 9.57845 23.1967 9.0015C23.039 8.49081 22.7804 8.01692 22.4364 7.60783C22.0477 7.14567 21.5115 6.8005 20.439 6.11015L15.964 3.22968C14.7094 2.42217 14.0822 2.01841 13.4071 1.86122C12.8104 1.72227 12.1896 1.72227 11.5929 1.86122C10.9178 2.01841 10.2906 2.42216 9.03603 3.22968L4.56103 6.11014C3.48851 6.8005 2.95226 7.14567 2.56361 7.60783C2.21959 8.01692 1.96104 8.49081 1.80326 9.0015C1.625 9.57845 1.625 10.2162 1.625 11.4917V17.3C1.625 18.4201 1.625 18.9802 1.84299 19.408C2.03473 19.7843 2.34069 20.0903 2.71702 20.282C3.14484 20.5 3.7049 20.5 4.825 20.5H6.14583C6.2619 20.5 6.31993 20.5 6.36897 20.4976C7.39638 20.4471 8.21795 19.6255 8.26842 18.5981C8.27083 18.5491 8.27083 18.4911 8.27083 18.375V16.2292C8.27083 13.8935 10.1643 12 12.5 12C14.8357 12 16.7292 13.8935 16.7292 16.2292V18.375C16.7292 18.4911 16.7292 18.5491 16.7316 18.5981C16.782 19.6255 17.6036 20.4471 18.631 20.4976C18.6801 20.5 18.7381 20.5 18.8542 20.5H20.175C21.2951 20.5 21.8552 20.5 22.283 20.282C22.6593 20.0903 22.9653 19.7843 23.157 19.408C23.375 18.9802 23.375 18.4201 23.375 17.3Z" stroke="#092C4C" stroke-width="1.8"/>
</svg>
