<svg width="20" height="20" viewBox="0 0 20 20" fill="none" xmlns="http://www.w3.org/2000/svg">
<path d="M4.86439 15.4102H2.54825C2.4773 15.4102 2.41602 15.4714 2.41602 15.5424V17.8553C2.41602 17.9294 2.4773 17.9909 2.54825 17.9909H4.86439C4.9385 17.9909 4.99662 17.9296 4.99662 17.8553V15.5424C4.99662 15.4714 4.9385 15.4102 4.86439 15.4102ZM4.60624 16.4842L3.68694 17.1777C3.62881 17.2228 3.5612 17.2421 3.49341 17.2421C3.39665 17.2421 3.30305 17.2002 3.2386 17.1196L2.98045 16.7905C2.8707 16.6486 2.89335 16.4452 3.03525 16.3357C3.17398 16.2259 3.37716 16.2517 3.48692 16.3904L3.55137 16.4711L4.21587 15.9711C4.35776 15.8613 4.56112 15.8905 4.66754 16.0324C4.77414 16.1746 4.74832 16.3778 4.60625 16.4842L4.60624 16.4842Z" fill="#092C4C"/>
<path d="M2.48519 7.93603H2.511C2.62392 7.12628 3.14655 6.44565 3.86585 6.11989C3.64651 5.88124 3.51094 5.56828 3.51094 5.21987C3.51094 4.48443 4.10764 3.88769 4.83993 3.88769C5.57537 3.88769 6.17212 4.48439 6.17212 5.21987C6.17212 5.56828 6.03339 5.88122 5.81405 6.11989C6.53335 6.44899 7.05929 7.12633 7.1689 7.93922H7.19471C7.23335 7.93922 7.26566 7.90691 7.26566 7.86828L7.26601 2.62954C7.26601 2.5909 7.2337 2.55859 7.19506 2.55859H2.48501C2.44637 2.55859 2.41406 2.59091 2.41406 2.62954V7.86513C2.4174 7.90377 2.44637 7.93608 2.48501 7.93608L2.48519 7.93603Z" fill="#092C4C"/>
<path d="M4.86439 10.709H2.54825C2.4773 10.709 2.41602 10.7671 2.41602 10.8412V13.1542C2.41602 13.2283 2.4773 13.2864 2.54825 13.2864H4.86439C4.9385 13.2864 4.99662 13.2283 4.99662 13.1542V10.8412C4.99662 10.7669 4.9385 10.709 4.86439 10.709ZM4.57411 11.967L3.6548 12.6573C3.59667 12.7025 3.52906 12.7251 3.46128 12.7251C3.36768 12.7251 3.27092 12.6832 3.20963 12.6025L2.94832 12.2703C2.83856 12.1316 2.86122 11.9284 3.00311 11.8186C3.14184 11.7089 3.34503 11.7315 3.45479 11.8734L3.51924 11.954L4.18373 11.4507C4.32562 11.3443 4.52898 11.3701 4.63541 11.5152C4.74499 11.6573 4.71601 11.8573 4.57412 11.967H4.57411Z" fill="#092C4C"/>
<path d="M5.52333 5.21645C5.52333 4.83907 5.21373 4.5293 4.83617 4.5293C4.45879 4.5293 4.15234 4.8389 4.15234 5.21645C4.15234 5.59384 4.45878 5.90361 4.83617 5.90361C5.2169 5.90343 5.52333 5.59383 5.52333 5.21645Z" fill="#092C4C"/>
<path d="M4.83951 6.54688C4.00728 6.54688 3.31366 7.14358 3.16211 7.934H6.52011C6.3654 7.14376 5.67174 6.54688 4.83951 6.54688Z" fill="#092C4C"/>
<path d="M13.3872 17.5711C13.1452 17.5711 12.9066 17.4678 12.7389 17.2936C12.5647 17.1163 12.4744 16.8839 12.4807 16.6388L12.5485 14.2163C12.555 13.9808 12.6194 13.7484 12.742 13.5452L15.5226 8.83249L15.5228 1.26772C15.5228 0.567751 14.9551 0 14.2582 0H1.26457C0.567751 0 0 0.567751 0 1.26772V18.7354C0 19.4354 0.567751 20 1.26457 20H14.2582C14.9551 20 15.5228 19.4354 15.5228 18.7354V16.458L13.8486 17.4451C13.7098 17.5258 13.5486 17.571 13.3872 17.571L13.3872 17.5711ZM12.6906 11.6H7.19378C7.01642 11.6 6.87119 11.4548 6.87119 11.2774C6.87119 11.1001 7.01642 10.9548 7.19378 10.9548H12.6906C12.8679 10.9548 13.0132 11.1001 13.0132 11.2774C13.0132 11.455 12.8681 11.6 12.6907 11.6H12.6906ZM10.597 12.7195C10.597 12.8969 10.4517 13.0421 10.2744 13.0421H7.19366C7.01629 13.0421 6.87106 12.8969 6.87106 12.7195C6.87106 12.5422 7.01629 12.3969 7.19366 12.3969H10.2744C10.4517 12.3969 10.597 12.542 10.597 12.7195ZM9.65832 3.05171H13.2873C13.4647 3.05171 13.6099 3.19694 13.6099 3.3743C13.6099 3.55167 13.4647 3.6969 13.2873 3.6969H9.65832C9.47762 3.6969 9.33573 3.55167 9.33573 3.3743C9.33573 3.19694 9.47762 3.05171 9.65832 3.05171ZM9.65832 4.92597H13.2873C13.4647 4.92597 13.6099 5.07121 13.6099 5.24857C13.6099 5.42594 13.4647 5.57117 13.2873 5.57117L9.65832 5.57099C9.47762 5.57099 9.33573 5.42576 9.33573 5.2484C9.33573 5.07103 9.47762 4.92597 9.65832 4.92597ZM9.65832 6.80011H13.2873C13.4647 6.80011 13.6099 6.94534 13.6099 7.1227C13.6099 7.30007 13.4647 7.4453 13.2873 7.4453H9.65832C9.47762 7.4453 9.33573 7.30007 9.33573 7.1227C9.33573 6.94534 9.47762 6.80011 9.65832 6.80011ZM1.77122 2.62921C1.77122 2.23567 2.09381 1.91625 2.48737 1.91625H7.19383C7.58737 1.91625 7.90679 2.23569 7.90679 2.62921V7.8648C7.90679 8.25834 7.58735 8.58095 7.19383 8.58095H2.48737C2.09383 8.58095 1.77122 8.25836 1.77122 7.8648V2.62921ZM5.64217 17.855C5.64217 18.284 5.29376 18.6355 4.86474 18.6355H2.5486C2.11958 18.6355 1.77117 18.284 1.77117 17.855V15.542C1.77117 15.113 2.11958 14.7646 2.5486 14.7646H4.86474C5.29376 14.7646 5.64217 15.113 5.64217 15.542V17.855ZM5.64217 13.1548C5.64217 13.5838 5.29376 13.9322 4.86474 13.9322H2.5486C2.11958 13.9322 1.77117 13.5838 1.77117 13.1548V10.8418C1.77117 10.4128 2.11958 10.0644 2.5486 10.0644H4.86474C5.29376 10.0644 5.64217 10.4128 5.64217 10.8418V13.1548ZM10.2744 17.7421H7.19374C7.01637 17.7421 6.87114 17.6002 6.87114 17.4195C6.87114 17.2422 7.01637 17.0969 7.19374 17.0969H10.2744C10.4518 17.0969 10.597 17.2422 10.597 17.4195C10.597 17.6002 10.4518 17.7421 10.2744 17.7421ZM11.0164 16.3002H7.19374C7.01637 16.3002 6.87114 16.155 6.87114 15.9776C6.87114 15.8002 7.01637 15.655 7.19374 15.655H11.0164C11.1938 15.655 11.339 15.8002 11.339 15.9776C11.339 16.1551 11.1938 16.3002 11.0164 16.3002Z" fill="#092C4C"/>
<path d="M18.7351 7.59632C18.0255 7.17697 17.1061 7.41246 16.6868 8.12545L16.1094 9.10604L18.6837 10.6254L19.2611 9.64484C19.6836 8.93188 19.4481 8.01572 18.7351 7.59636L18.7351 7.59632Z" fill="#092C4C"/>
<path d="M13.2942 13.8756C13.2298 13.9854 13.1943 14.1079 13.191 14.2368L13.1232 16.6562C13.1167 16.8627 13.3394 16.995 13.5167 16.8885L15.6007 15.6594C15.7104 15.595 15.8007 15.5046 15.8651 15.395L15.9942 15.1756L13.4199 13.6562L13.2942 13.8756Z" fill="#092C4C"/>
<path d="M13.7539 13.0982L15.7855 9.65625L18.3608 11.1762L16.3292 14.6181L13.7539 13.0982Z" fill="#092C4C"/>
</svg>
