<svg width="40" height="40" viewBox="0 0 40 40" fill="none" xmlns="http://www.w3.org/2000/svg">
<circle opacity="0.1" cx="20" cy="20" r="20" fill="green"/>
<path fill-rule="evenodd" clip-rule="evenodd" d="M20.0116 17.2782V15.7011C17.4876 15.6971 15.2335 17.5101 14.7577 20.104C14.2866 22.6669 15.6926 25.196 18.1006 26.1181C18.7897 26.382 19.1356 27.1581 18.8746 27.8541C18.6427 28.4721 18.0076 28.8171 17.3866 28.7011C17.3087 28.687 17.2306 28.6651 17.1547 28.6361C13.5396 27.2542 11.4288 23.459 12.1357 19.6152C12.8497 15.7262 16.2288 13.0174 20.0114 13.0223V11.7153C20.0114 11.0883 20.8005 10.7653 21.2785 11.1982L24.3525 13.9794C24.6634 14.2613 24.6634 14.7333 24.3525 15.0152L21.2785 17.7962C20.8005 18.2283 20.0114 17.9062 20.0114 17.2784L20.0116 17.2782ZM21.7745 26.1613C21.5764 26.2333 21.3724 26.2933 21.1665 26.3393C20.4475 26.5002 19.9926 27.2193 20.1514 27.9453C20.2705 28.4893 20.7005 28.8823 21.2105 28.9782C21.3815 29.0092 21.5614 29.0082 21.7415 28.9683C22.0556 28.8973 22.3645 28.8073 22.6665 28.6992C23.3596 28.4502 23.7235 27.6792 23.4775 26.9792C23.2306 26.2783 22.4665 25.9123 21.7745 26.1613V26.1613ZM24.4254 24.0903C24.3686 24.1762 24.3095 24.2603 24.2465 24.3422C23.7976 24.9312 23.9055 25.7763 24.4894 26.2303C24.6634 26.3642 24.8575 26.4493 25.0595 26.4863C25.5355 26.5752 26.0435 26.3982 26.3604 25.9833C26.4555 25.8572 26.5486 25.7273 26.6375 25.5943C27.0484 24.9773 26.8875 24.1413 26.2774 23.7252C25.6665 23.3123 24.8374 23.4733 24.4254 24.0903V24.0903ZM26.7015 19.9603C25.9655 19.9403 25.3514 20.5533 25.3324 21.2973C25.3144 21.9663 25.7845 22.5242 26.4165 22.6423C26.4845 22.6554 26.5555 22.6634 26.6265 22.6643C27.3614 22.6862 27.9754 22.0892 27.9985 21.3463C27.9985 21.3444 27.9995 21.3173 27.9995 21.3153C28.0194 20.5713 27.4325 19.9732 26.7015 19.9604" fill="green"/>
</svg>
