<svg width="41" height="40" viewBox="0 0 41 40" fill="none" xmlns="http://www.w3.org/2000/svg">
<circle opacity="0.1" cx="20.6562" cy="20" r="20" fill="#FF4747"/>
<path d="M22.3971 17.7539L18.8717 18.1957L18.7455 18.7807L19.4382 18.9085C19.8908 19.0163 19.9801 19.1795 19.8816 19.6305L18.7455 24.9694C18.4468 26.3503 18.9071 27 19.9894 27C20.8284 27 21.8029 26.6121 22.2447 26.0794L22.3802 25.439C22.0723 25.7099 21.6227 25.8177 21.3241 25.8177C20.9007 25.8177 20.7468 25.5206 20.8561 24.9971L22.3971 17.7539ZM22.5049 14.5395C22.5049 14.9478 22.3427 15.3393 22.054 15.6281C21.7653 15.9168 21.3737 16.079 20.9654 16.079C20.5571 16.079 20.1655 15.9168 19.8768 15.6281C19.5881 15.3393 19.4259 14.9478 19.4259 14.5395C19.4259 14.1312 19.5881 13.7396 19.8768 13.4509C20.1655 13.1622 20.5571 13 20.9654 13C21.3737 13 21.7653 13.1622 22.054 13.4509C22.3427 13.7396 22.5049 14.1312 22.5049 14.5395Z" fill="#FF4747"/>
</svg>
