<svg width="15" height="13" viewBox="0 0 15 13" fill="none" xmlns="http://www.w3.org/2000/svg">
<path d="M4.03853 6.50056C4.03853 6.34755 4.09932 6.20081 4.20751 6.09261C4.31571 5.98442 4.46245 5.92363 4.61547 5.92363H9.80787V2.17356C9.80787 1.0197 8.58946 0.154297 7.50013 0.154297H2.01927C1.4839 0.15487 0.970624 0.367797 0.592062 0.746359C0.2135 1.12492 0.000572688 1.6382 0 2.17356V10.8276C0.000572688 11.3629 0.2135 11.8762 0.592062 12.2548C0.970624 12.6333 1.4839 12.8463 2.01927 12.8468H7.7886C8.32397 12.8463 8.83724 12.6333 9.21581 12.2548C9.59437 11.8762 9.80729 11.3629 9.80787 10.8276V7.0775H4.61547C4.46245 7.0775 4.31571 7.01671 4.20751 6.90852C4.09932 6.80032 4.03853 6.65358 4.03853 6.50056ZM14.8312 6.09274L11.9465 3.20808C11.8374 3.10445 11.6922 3.04753 11.5417 3.04946C11.3913 3.05138 11.2475 3.112 11.1412 3.21839C11.0348 3.32478 10.9742 3.46851 10.9722 3.61896C10.9703 3.7694 11.0272 3.91464 11.1308 4.02372L13.0304 5.92363H9.80787V7.0775H13.0304L11.1308 8.97741C11.075 9.03045 11.0304 9.09413 10.9995 9.1647C10.9687 9.23527 10.9523 9.31129 10.9513 9.38829C10.9504 9.46529 10.9648 9.54171 10.9938 9.61304C11.0228 9.68438 11.0658 9.74918 11.1203 9.80363C11.1747 9.85808 11.2395 9.90108 11.3109 9.9301C11.3822 9.95911 11.4586 9.97355 11.5356 9.97256C11.6126 9.97158 11.6886 9.95518 11.7592 9.92436C11.8298 9.89353 11.8934 9.84888 11.9465 9.79305L14.8312 6.90838C14.9393 6.8002 15 6.65351 15 6.50056C15 6.34762 14.9393 6.20093 14.8312 6.09274Z" fill="#092C4C"/>
</svg>
