<svg width="14" height="15" viewBox="0 0 14 15" fill="none" xmlns="http://www.w3.org/2000/svg">
<path d="M6.91005 5.10543C7.04823 5.03641 7.20277 4.99998 7.3573 4.99998C7.51183 4.99998 7.66638 5.03641 7.80455 5.10543L10.8573 6.63198V2.50005C10.8573 2.22397 10.6336 2 10.3573 2H3.35734C3.08125 2 2.85742 2.22396 2.85742 2.50005V7.132L6.91005 5.10543ZM4.85733 3.49996H8.85716C9.13351 3.49996 9.35721 3.72392 9.35721 4.00001C9.35721 4.27611 9.13352 4.50007 8.85716 4.50007H4.85733C4.58125 4.50007 4.35728 4.27611 4.35728 4.00001C4.35728 3.72392 4.58124 3.49996 4.85733 3.49996Z" fill="#18A0FB"/>
<path d="M11.3575 1.98959V6.88202L12.3575 7.38207V1.00005C12.3575 0.723965 12.1336 0.5 11.8574 0.5H4.85748C4.58139 0.5 4.35742 0.723826 4.35742 1.00005V1.50011H10.8678C11.1384 1.50011 11.3576 1.71932 11.3576 1.98959H11.3575Z" fill="#18A0FB"/>
<path d="M5.89152 11.33C5.96173 11.1389 6.14148 11.0009 6.35698 11.0009C6.63307 11.0009 6.85703 11.2248 6.85703 11.5009C6.85703 11.7766 7.08139 12.001 7.35709 12.001C7.63279 12.001 7.85714 11.7766 7.85714 11.5009C7.85714 11.2252 7.63279 11.0009 7.35709 11.0009C6.52989 11.0009 5.85709 10.3281 5.85709 9.50089C5.85709 8.84998 6.27637 8.30006 6.85707 8.09299V8.00087C6.85707 7.72478 7.08102 7.50082 7.35712 7.50082C7.63321 7.50082 7.85717 7.72478 7.85717 8.00087V8.09299C8.43797 8.30006 8.85715 8.84985 8.85715 9.50089C8.85715 9.77698 8.63345 10.0009 8.35709 10.0009C8.08074 10.0009 7.85704 9.77698 7.85704 9.50089C7.85704 9.22519 7.63268 9.00083 7.35698 9.00083C7.08128 9.00083 6.85693 9.22519 6.85693 9.50089C6.85693 9.77658 7.08128 10.0009 7.35698 10.0009C8.12229 10.0009 8.74839 10.5791 8.83877 11.3204L13.5096 8.51811L7.58095 5.55373C7.44026 5.48339 7.27424 5.48339 7.1337 5.55373L1.20508 8.51797L5.89152 11.33Z" fill="#18A0FB"/>
<path d="M8.79146 11.9318C8.65302 12.3865 8.30421 12.7493 7.85761 12.9084V13.0005C7.85761 13.2766 7.63365 13.5006 7.35755 13.5006C7.08146 13.5006 6.8575 13.2766 6.8575 13.0005V12.9084C6.41089 12.7493 6.06209 12.3865 5.92364 11.9318L0.871411 8.90052C0.86468 8.93338 0.857422 8.96624 0.857422 9.00056V14.0004C0.857422 14.2765 1.08138 14.5005 1.35748 14.5005H13.3576C13.634 14.5005 13.8577 14.2765 13.8577 14.0004L13.8575 9.00056C13.8575 8.96611 13.8503 8.93325 13.8436 8.90039L8.79146 11.9318Z" fill="#18A0FB"/>
</svg>
