<svg width="15" height="15" viewBox="0 0 15 15" fill="none" xmlns="http://www.w3.org/2000/svg">
<path d="M7.30371 4.8913C6.78776 4.8913 6.2834 5.0443 5.8544 5.33095C5.4254 5.6176 5.09104 6.02502 4.89359 6.5017C4.69615 6.97837 4.64449 7.50289 4.74514 8.00893C4.8458 8.51497 5.09426 8.97979 5.45909 9.34463C5.82392 9.70946 6.28875 9.95791 6.79478 10.0586C7.30082 10.1592 7.82534 10.1076 8.30202 9.91012C8.7787 9.71268 9.18612 9.37831 9.47277 8.94931C9.75941 8.52032 9.91241 8.01595 9.91241 7.5C9.91035 6.80877 9.63484 6.14643 9.14606 5.65765C8.65728 5.16888 7.99495 4.89337 7.30371 4.8913ZM12.9359 7.5C12.9345 7.74375 12.9167 7.98714 12.8824 8.22848L14.4701 9.47152C14.5393 9.52862 14.5859 9.60845 14.6016 9.69674C14.6173 9.78503 14.6011 9.87603 14.5559 9.95348L13.0539 12.5465C13.0083 12.6233 12.937 12.6815 12.8527 12.7109C12.7683 12.7403 12.6763 12.739 12.5928 12.7073L10.726 11.9573C10.3373 12.2566 9.91186 12.5051 9.46013 12.6965L9.181 14.6785C9.16537 14.7673 9.11941 14.8479 9.05095 14.9065C8.98249 14.9651 8.89579 14.9982 8.80567 15H5.80176C5.71327 14.9983 5.62799 14.9666 5.55982 14.9102C5.49165 14.8537 5.44463 14.7758 5.42643 14.6892L5.1473 12.7073C4.69432 12.518 4.26861 12.2692 3.88143 11.9674L2.01458 12.7174C1.93113 12.7492 1.83916 12.7505 1.75483 12.7211C1.67049 12.6918 1.59921 12.6337 1.5535 12.557L0.0515409 9.96424C0.00633151 9.88679 -0.00986498 9.79579 0.00584577 9.7075C0.0215565 9.61921 0.0681508 9.53938 0.137302 9.48228L1.72502 8.23924C1.69115 7.99425 1.67329 7.74731 1.67154 7.5C1.6729 7.25624 1.69076 7.01286 1.72502 6.77152L0.137302 5.52848C0.0681508 5.47138 0.0215565 5.39155 0.00584577 5.30326C-0.00986498 5.21497 0.00633151 5.12397 0.0515409 5.04652L1.5535 2.45348C1.59916 2.37672 1.67042 2.31851 1.75476 2.28911C1.83909 2.2597 1.9311 2.26098 2.01458 2.29272L3.88143 3.04272C4.27017 2.74337 4.69557 2.49495 5.1473 2.30348L5.42643 0.321522C5.44205 0.232744 5.48802 0.152147 5.55648 0.0935036C5.62494 0.0348599 5.71164 0.00180937 5.80176 0H8.80567C8.89416 0.00172224 8.97944 0.0333884 9.04761 0.0898293C9.11578 0.14627 9.1628 0.224152 9.181 0.310761L9.46013 2.29272C9.91367 2.48184 10.3399 2.73067 10.7276 3.03261L12.5928 2.28261C12.6763 2.25084 12.7683 2.24952 12.8526 2.27886C12.9369 2.3082 13.0082 2.36634 13.0539 2.44304L14.5559 5.03609C14.6011 5.11353 14.6173 5.20454 14.6016 5.29283C14.5859 5.38112 14.5393 5.46095 14.4701 5.51804L12.8824 6.76109C12.9163 7.00597 12.9341 7.2528 12.9359 7.5Z" fill="#092C4C"/>
</svg>
