<svg width="98" height="98" viewBox="0 0 98 98" fill="none" xmlns="http://www.w3.org/2000/svg">
<circle cx="49" cy="49" r="41.5" stroke="#37D310" stroke-width="15"/>
<mask id="path-2-inside-1_161_12633" fill="white">
<path d="M49 7.54492C49 3.37798 52.3975 -0.0593514 56.5152 0.57974C60.5401 1.20444 64.4813 2.33008 68.2451 3.93754C74.3286 6.53566 79.823 10.3387 84.3973 15.1173C88.9715 19.896 92.5307 25.5514 94.8605 31.7426C97.1902 37.9338 98.2423 44.5327 97.9532 51.1414C97.6641 57.7502 96.0398 64.232 93.1784 70.1961C90.3168 76.1602 86.2774 81.4832 81.3033 85.8442C76.3293 90.2052 70.5238 93.5139 64.2367 95.5708C60.3468 96.8435 56.3225 97.6207 52.2583 97.8915C48.1006 98.1686 45.0162 94.4478 45.3801 90.2967C45.7439 86.1457 49.4372 83.1624 53.5662 82.6013C55.5912 82.3262 57.5923 81.8678 59.5445 81.2291C63.8954 79.8056 67.9131 77.5158 71.3553 74.4978C74.7976 71.4798 77.5931 67.7961 79.5734 63.6686C81.5537 59.5412 82.6777 55.0555 82.8778 50.482C83.0778 45.9084 82.3498 41.3417 80.7375 37.0571C79.1252 32.7725 76.662 28.8587 73.4965 25.5517C70.3309 22.2446 66.5285 19.6128 62.3185 17.8148C60.4296 17.0081 58.4761 16.3767 56.4829 15.9257C52.4186 15.0062 49 11.7119 49 7.54492Z"/>
</mask>
<path d="M49 7.54492C49 3.37798 52.3975 -0.0593514 56.5152 0.57974C60.5401 1.20444 64.4813 2.33008 68.2451 3.93754C74.3286 6.53566 79.823 10.3387 84.3973 15.1173C88.9715 19.896 92.5307 25.5514 94.8605 31.7426C97.1902 37.9338 98.2423 44.5327 97.9532 51.1414C97.6641 57.7502 96.0398 64.232 93.1784 70.1961C90.3168 76.1602 86.2774 81.4832 81.3033 85.8442C76.3293 90.2052 70.5238 93.5139 64.2367 95.5708C60.3468 96.8435 56.3225 97.6207 52.2583 97.8915C48.1006 98.1686 45.0162 94.4478 45.3801 90.2967C45.7439 86.1457 49.4372 83.1624 53.5662 82.6013C55.5912 82.3262 57.5923 81.8678 59.5445 81.2291C63.8954 79.8056 67.9131 77.5158 71.3553 74.4978C74.7976 71.4798 77.5931 67.7961 79.5734 63.6686C81.5537 59.5412 82.6777 55.0555 82.8778 50.482C83.0778 45.9084 82.3498 41.3417 80.7375 37.0571C79.1252 32.7725 76.662 28.8587 73.4965 25.5517C70.3309 22.2446 66.5285 19.6128 62.3185 17.8148C60.4296 17.0081 58.4761 16.3767 56.4829 15.9257C52.4186 15.0062 49 11.7119 49 7.54492Z" fill="#964CF5" stroke="#092C4C" stroke-opacity="0.1" stroke-width="20" mask="url(#path-2-inside-1_161_12633)"/>
</svg>
