<svg width="15" height="15" viewBox="0 0 15 15" fill="none" xmlns="http://www.w3.org/2000/svg">
<path d="M14.6813 11.5921L11.2508 8.16166C10.5741 7.48493 9.56343 7.35311 8.74902 7.75445L5.62615 4.63158V2.81234L1.87636 0L0.00146474 1.8749L2.81381 5.62469H4.63304L7.75592 8.74756C7.3575 9.56197 7.4864 10.5727 8.16312 11.2494L11.5936 14.6798C12.0213 15.1076 12.7127 15.1076 13.1375 14.6798L14.6813 13.136C15.1061 12.7083 15.1061 12.0169 14.6813 11.5921ZM9.7187 6.59143C10.5478 6.59143 11.327 6.91368 11.9129 7.49958L12.4812 8.06791C12.9441 7.86577 13.3835 7.58454 13.7644 7.2037C14.8512 6.11685 15.2203 4.58764 14.8747 3.19904C14.8102 2.93538 14.4792 2.84457 14.2858 3.03792L12.1063 5.21748L10.1171 4.88645L9.78608 2.8973L11.9656 0.717733C12.159 0.524385 12.0652 0.193349 11.7987 0.12597C10.4101 -0.216785 8.88085 0.152335 7.79693 1.23626C6.96201 2.07117 6.56946 3.17267 6.58996 4.27125L8.9951 6.67639C9.2324 6.62072 9.47848 6.59143 9.7187 6.59143ZM6.67492 8.99364L5.01388 7.3326L0.549286 11.8001C-0.183095 12.5325 -0.183095 13.719 0.549286 14.4513C1.28167 15.1837 2.46812 15.1837 3.20051 14.4513L6.8214 10.8305C6.59875 10.2475 6.53137 9.61177 6.67492 8.99364ZM1.87636 13.8274C1.48966 13.8274 1.17327 13.511 1.17327 13.1243C1.17327 12.7346 1.48673 12.4212 1.87636 12.4212C2.26599 12.4212 2.57945 12.7346 2.57945 13.1243C2.57945 13.511 2.26599 13.8274 1.87636 13.8274Z" fill="#092C4C"/>
</svg>
