<svg width="20" height="20" viewBox="0 0 20 20" fill="none" xmlns="http://www.w3.org/2000/svg">
<path d="M14.7745 8.77265C14.6775 8.72747 14.6306 8.61595 14.666 8.51501C14.8132 8.09292 14.7471 7.62584 14.4885 7.26142C14.2299 6.89699 13.8108 6.68035 13.364 6.67996C13.2935 6.67996 13.2232 6.68544 13.1536 6.6964C13.0487 6.71266 12.9481 6.64726 12.9205 6.54481C12.803 6.11043 12.481 5.76055 12.0578 5.60764C11.6346 5.45452 11.1634 5.51766 10.7951 5.77643C10.4271 6.03521 10.2082 6.45728 10.209 6.90717V8.27172C10.3254 8.45016 10.501 8.5821 10.7048 8.64447C10.9086 8.70685 11.1278 8.69551 11.3242 8.61291C11.3764 8.59325 11.4344 8.59533 11.4851 8.61858C11.5358 8.64183 11.5749 8.68455 11.5938 8.7371C11.6127 8.78945 11.6098 8.8473 11.5858 8.89758C11.5616 8.94805 11.5185 8.9866 11.4658 9.00475C11.3034 9.06524 11.1318 9.0968 10.9587 9.09832C10.6893 9.09775 10.427 9.01231 10.209 8.85429V13.089C10.2086 13.5251 10.4145 13.9356 10.764 14.1963C11.1135 14.4568 11.5658 14.5369 11.9836 14.4122C12.4013 14.2874 12.7355 13.9725 12.885 13.5629C12.9198 13.467 13.0187 13.4105 13.1187 13.4291C13.5207 13.5016 13.9341 13.3924 14.2475 13.1304C14.5611 12.8686 14.7424 12.4813 14.7424 12.0728C14.743 11.8959 14.709 11.7205 14.6422 11.5566C14.5999 11.4521 14.6483 11.3328 14.7515 11.2874C15.0766 11.1434 15.3337 10.8795 15.469 10.5506C15.6044 10.2217 15.6078 9.8533 15.4783 9.52211C15.3488 9.19093 15.0964 8.92251 14.774 8.77265H14.7745ZM11.962 12.8705C11.6476 12.8709 11.3928 13.1257 11.3924 13.4402C11.3924 13.5551 11.2991 13.6485 11.1841 13.6485C11.069 13.6485 10.9758 13.5551 10.9758 13.4402C10.976 13.1786 11.08 12.928 11.2648 12.7431C11.4499 12.5582 11.7005 12.4541 11.9619 12.4539C12.0771 12.4539 12.1703 12.5471 12.1703 12.6622C12.1703 12.7773 12.0771 12.8705 11.9619 12.8705L11.962 12.8705ZM11.962 7.8394C11.7008 7.83902 11.4501 7.73506 11.2654 7.55019C11.0805 7.36532 10.9768 7.11468 10.9764 6.85347C10.9764 6.73835 11.0696 6.64516 11.1847 6.64516C11.2998 6.64516 11.393 6.73835 11.393 6.85347C11.3936 7.16781 11.6482 7.42244 11.9625 7.42283C12.0777 7.42283 12.171 7.51601 12.171 7.63113C12.171 7.74625 12.0777 7.83943 11.9625 7.83943L11.962 7.8394ZM13.2995 11.8456V11.8458C13.0381 11.8454 12.7875 11.7414 12.6026 11.5565C12.4178 11.3717 12.3138 11.121 12.3134 10.8596C12.3134 10.7447 12.4068 10.6513 12.5219 10.6513C12.6368 10.6513 12.7302 10.7447 12.7302 10.8596C12.7306 11.174 12.9852 11.4288 13.2996 11.429C13.4147 11.429 13.5079 11.5224 13.5079 11.6375C13.5079 11.7524 13.4147 11.8458 13.2996 11.8458L13.2995 11.8456ZM13.3697 8.62801V8.6282C13.0553 8.62858 12.8005 8.88319 12.8 9.19756C12.8 9.31267 12.7068 9.40586 12.5917 9.40586C12.4765 9.40586 12.3834 9.31267 12.3834 9.19756C12.3837 8.93614 12.4877 8.68549 12.6727 8.50064C12.8576 8.31578 13.1083 8.21181 13.3697 8.21162C13.4848 8.21162 13.5782 8.30481 13.5782 8.41993C13.5782 8.53504 13.4848 8.62823 13.3697 8.62823L13.3697 8.62801Z" fill="#092C4C"/>
<path d="M19.875 8.41038C19.8358 8.17504 19.6534 7.98923 19.4188 7.94594L17.6834 7.61685V7.61666C17.5704 7.597 17.4766 7.51837 17.4375 7.41044C17.3385 7.12331 17.2222 6.84224 17.0897 6.56869C17.0413 6.46757 17.051 6.34848 17.1147 6.25624L18.1125 4.79166C18.2482 4.59545 18.2456 4.33517 18.1063 4.14159C17.4821 3.27623 16.7232 2.51655 15.8584 1.89164C15.6633 1.75441 15.4038 1.75195 15.2063 1.8854L13.7438 2.88534C13.6528 2.94979 13.5341 2.96019 13.4334 2.91256C13.1595 2.77816 12.8779 2.66059 12.5896 2.56041C12.4814 2.52185 12.4026 2.42771 12.3833 2.31449L12.0542 0.579073V0.579262C12.0111 0.344681 11.8251 0.162653 11.5896 0.125039C10.5371 -0.0416796 9.465 -0.0416796 8.41251 0.125039C8.1768 0.163033 7.99023 0.344686 7.94581 0.579262L7.6188 2.31468V2.31449C7.59876 2.42752 7.52013 2.52109 7.41258 2.56041C7.12413 2.66021 6.84249 2.77779 6.56875 2.91256C6.468 2.96019 6.34929 2.94979 6.25837 2.88534L4.7938 1.8854C4.59683 1.75176 4.33787 1.75422 4.14372 1.89164C3.27875 2.51713 2.51907 3.27662 1.89378 4.14159C1.75636 4.3359 1.7539 4.59487 1.88754 4.79166L2.88747 6.25624C2.94985 6.34791 2.96006 6.46549 2.9145 6.56662C2.78011 6.84051 2.66253 7.12233 2.56254 7.41044C2.52511 7.51781 2.43268 7.59682 2.32078 7.61667L0.581201 7.94576V7.94595C0.346432 7.98923 0.164214 8.17505 0.124897 8.41038C-0.0416325 9.46287 -0.0416325 10.535 0.124897 11.5875C0.164214 11.823 0.346432 12.0086 0.581201 12.0521L2.32078 12.3833C2.44346 12.4046 2.54212 12.4961 2.57293 12.6167C2.64268 12.8969 2.75364 13.1649 2.90203 13.4125C2.96006 13.5161 2.95438 13.6437 2.88747 13.7418L1.88754 15.2073C1.7539 15.404 1.75636 15.663 1.89378 15.8573C2.51869 16.7221 3.27817 17.4811 4.14372 18.1052C4.33728 18.2447 4.59757 18.2472 4.7938 18.1115L6.25629 17.1136C6.34873 17.0508 6.46743 17.0414 6.56875 17.0886C6.84226 17.2225 7.12412 17.3387 7.41257 17.4365C7.51994 17.4767 7.59782 17.5712 7.61672 17.6845L7.94581 19.4199C7.99099 19.6539 8.17718 19.8351 8.41251 19.8739C9.465 20.0406 10.5371 20.0406 11.5896 19.8739C11.8248 19.8357 12.0106 19.6541 12.0542 19.4199L12.3833 17.6845C12.4039 17.5712 12.4822 17.4773 12.5896 17.4365C12.8776 17.338 13.1594 17.2217 13.4334 17.0886C13.5339 17.041 13.6521 17.0507 13.7438 17.1136L15.2063 18.1115C15.4032 18.2472 15.6641 18.2447 15.8584 18.1052C16.7236 17.4816 17.4827 16.7225 18.1063 15.8573C18.2456 15.6638 18.2482 15.4035 18.1125 15.2073L17.1147 13.7427C17.0508 13.6514 17.0411 13.5327 17.0897 13.4323C17.2228 13.1584 17.339 12.8766 17.4375 12.5885C17.478 12.4817 17.5711 12.4034 17.6834 12.3823L19.4188 12.0532C19.6534 12.0097 19.8358 11.8239 19.875 11.5886C20.0417 10.5361 20.0417 9.46394 19.875 8.41145V8.41038ZM15.0914 11.5824C15.2518 12.1499 15.1239 12.76 14.7485 13.215C14.3733 13.67 13.7986 13.9119 13.211 13.8624C13.0193 14.266 12.6839 14.5837 12.2706 14.7533C11.8572 14.9228 11.3954 14.9319 10.9753 14.7792C10.5555 14.6262 10.2077 14.3223 9.99999 13.9267C9.79225 14.3221 9.44447 14.6259 9.02464 14.7784C8.60482 14.9312 8.14321 14.9217 7.73001 14.7522C7.3168 14.5828 6.98146 14.2653 6.78979 13.8617C6.20229 13.9114 5.62785 13.6694 5.25282 13.2147C4.87761 12.7597 4.74966 12.1497 4.91031 11.5825C4.3576 11.2632 4.01568 10.6748 4.0119 10.0364C4.00812 9.39827 4.34307 8.80588 4.89202 8.48021C4.76329 7.94507 4.88692 7.38064 5.22754 6.94838C5.56816 6.51627 6.08796 6.2639 6.63821 6.2639C6.67072 6.2639 6.70266 6.2639 6.73423 6.26635C6.89963 5.83425 7.22549 5.48248 7.64382 5.28457C8.06213 5.08685 8.54073 5.05812 8.97963 5.20461C9.41873 5.35091 9.78431 5.66111 9.99999 6.07055C10.2157 5.66094 10.5812 5.35036 11.0203 5.20389C11.4594 5.05721 11.9383 5.08594 12.3567 5.28384C12.7752 5.48175 13.1011 5.8335 13.2665 6.26602C13.2985 6.26412 13.3302 6.26337 13.3627 6.26337C13.913 6.26375 14.4326 6.5161 14.7731 6.94819C15.1135 7.3803 15.2373 7.94454 15.109 8.47949C15.6583 8.80518 15.9934 9.3976 15.9898 10.0361C15.9862 10.6744 15.6441 11.263 15.0914 11.5825L15.0914 11.5824Z" fill="#092C4C"/>
<path d="M8.70564 11.5337C8.65687 11.5615 8.59884 11.5683 8.54497 11.5528C8.49091 11.5371 8.44554 11.5004 8.41908 11.4509C8.39262 11.4014 8.38713 11.3432 8.40415 11.2897C8.42116 11.236 8.45896 11.1916 8.50925 11.1664C8.70394 11.0515 8.92642 10.9918 9.15269 10.9938C9.37876 10.9957 9.60011 11.0594 9.79289 11.1778V6.90675C9.79289 6.45744 9.57381 6.03612 9.20597 5.77791C8.83812 5.51951 8.36766 5.45676 7.94482 5.6093C7.52198 5.76184 7.20005 6.11076 7.08193 6.54439C7.05358 6.64646 6.9534 6.71148 6.84849 6.69598C6.77911 6.68502 6.70899 6.67954 6.63886 6.67954C6.2731 6.67992 5.92245 6.82546 5.6637 7.08405C5.40512 7.34264 5.25976 7.69328 5.25938 8.05902C5.25919 8.2142 5.28528 8.36807 5.33669 8.51438C5.37223 8.61531 5.32535 8.72703 5.22819 8.7722C4.90572 8.9221 4.65356 9.1907 4.52426 9.52186C4.39496 9.85303 4.39837 10.2214 4.53371 10.5502C4.66924 10.8789 4.92613 11.1427 5.25124 11.2868C5.35445 11.3322 5.40303 11.4512 5.36068 11.5558C5.29396 11.7199 5.25994 11.8953 5.26031 12.0722C5.26012 12.4809 5.44121 12.8684 5.75481 13.1302C6.06841 13.3921 6.48197 13.5014 6.88404 13.4284C6.89671 13.4262 6.90956 13.425 6.92242 13.4248C7.00994 13.425 7.088 13.48 7.11768 13.5623C7.26777 13.9711 7.60177 14.2851 8.01914 14.4095C8.4365 14.5338 8.88808 14.4539 9.23741 14.1938C9.58653 13.9337 9.79259 13.5239 9.79293 13.0884V11.7113C9.66288 11.5567 9.48161 11.4537 9.28217 11.4212C9.08275 11.3885 8.87822 11.4286 8.70565 11.5337L8.70564 11.5337ZM8.04047 7.42203C8.35482 7.42165 8.60964 7.16704 8.61002 6.85267C8.61002 6.73756 8.7034 6.64437 8.81833 6.64437C8.93344 6.64437 9.02663 6.73756 9.02663 6.85267C9.02644 7.11409 8.92229 7.36474 8.73742 7.54959C8.55256 7.73445 8.30191 7.83842 8.04051 7.83861C7.92539 7.83861 7.83221 7.74542 7.83221 7.6303C7.83221 7.51519 7.92539 7.422 8.04051 7.422L8.04047 7.42203ZM6.42468 8.41911C6.42468 8.304 6.51787 8.21081 6.63298 8.21081C6.8944 8.211 7.14505 8.31496 7.3299 8.49983C7.51475 8.6847 7.61873 8.93534 7.61892 9.19674C7.61892 9.31186 7.52573 9.40505 7.41061 9.40505C7.2955 9.40505 7.20231 9.31186 7.20231 9.19674C7.20193 8.88258 6.94712 8.62796 6.63295 8.62738C6.57756 8.62738 6.52464 8.60546 6.48551 8.56633C6.44657 8.52739 6.42464 8.47428 6.42464 8.41908L6.42468 8.41911ZM6.70292 11.845C6.5878 11.845 6.49461 11.7516 6.49461 11.6367C6.49461 11.5216 6.5878 11.4282 6.70292 11.4282C7.01708 11.4278 7.2717 11.1732 7.27208 10.8588C7.27208 10.7439 7.36546 10.6505 7.48039 10.6505C7.5955 10.6505 7.68869 10.7439 7.68869 10.8588C7.6885 11.1202 7.58454 11.3709 7.39967 11.5557C7.215 11.7406 6.96435 11.8446 6.70295 11.845L6.70292 11.845ZM8.81829 13.6479C8.70337 13.6479 8.60999 13.5545 8.60999 13.4396C8.60961 13.1251 8.35481 12.8702 8.04044 12.8699C7.92532 12.8699 7.83213 12.7767 7.83213 12.6616C7.83213 12.5465 7.92532 12.4533 8.04044 12.4533C8.30186 12.4535 8.5527 12.5576 8.73755 12.7425C8.92241 12.9274 9.02638 13.178 9.02656 13.4396C9.02656 13.4948 9.00464 13.5477 8.9657 13.5869C8.92657 13.626 8.87365 13.6479 8.81826 13.6479L8.81829 13.6479Z" fill="#092C4C"/>
</svg>
